# xmcd CD database file
# Copyright (C) 1996 Ti Kan
#
# Track frame offsets:
#  150
#  22137
#  29330
#  52432
#  68570
#  77230
#  95062
#  126022
#  136500
#  160525
#
# Disc length: 2939 seconds
#
# Revision: 2
# Processed by: cddbd v1.4PL0 Copyright (c) Steve Scherf et al.
# Submitted via: Gronk 1.4
#
DISCID=820b790a
DTITLE=Robert Nighthawk - Live On Maxwell Street - 1964
DYEAR=1900
DGENRE=blues
TTITLE0=Goin' Down To Eli's
TTITLE1=Mr. Bell's Shuffle
TTITLE2=The Time Have Come
TTITLE3=Yakity Yak
TTITLE4=Nighthawk Shuffle
TTITLE5=Take It Easy Baby
TTITLE6=Maxwell Street Medley
TTITLE7=Burning Heat
TTITLE8=I Need Love So Bad
TTITLE9=Excerpts From Interview
EXTD=Rounder CD 2022\n\n1980 W.C. Handy Award Winner:  Vintage or Reissue
EXTD=Album of the Year\n\nRobert Nighthawk:  vocals, lead and slide guit
EXTD=ar\nJohnny Young:  rhythm guitar\nRobert Whitehead:  drums\nCarey Be
EXTD=ll:  harmonica on "Mr. Bell's Shuffle" and "Burning Heat;" bass on "
EXTD=Nighthawk Shuffle"\n\nSubmitted 6/10/97\n[jmccoy@efn.org]
EXTT0=
EXTT1=
EXTT2=
EXTT3=
EXTT4=
EXTT5=
EXTT6=
EXTT7=
EXTT8=
EXTT9=
PLAYORDER=
